<svg id="Icons" xmlns="http://www.w3.org/2000/svg" viewBox="0 0 64 64"><defs><style>.cls-1{opacity:0.35;}.cls-2{fill:#7687ee;}.cls-3{opacity:0.05;}</style></defs><title>trash</title><g id="Trash"><g id="Hexagon_Border" data-name="Hexagon Border" class="cls-1"><path class="cls-2" d="M54.25,8.69h0l-.11-.05h0L36.25.69h0A8,8,0,0,0,30,.58h0l-.12,0h0L10,8.57h0A8,8,0,0,0,5,16V48a8,8,0,0,0,5,7.42h0l19.85,7.94h0l.12,0h0a8,8,0,0,0,6.22-.12h0L54.1,55.37h0l.11-.05h0A8,8,0,0,0,59,48V16A8,8,0,0,0,54.25,8.69ZM57,48a6,6,0,0,1-3.57,5.48h0l-.1,0h0l-17.89,8h0a5.89,5.89,0,0,1-4.66.09h0l-.1,0h0l-19.89-8h0A6,6,0,0,1,7,48V16a6,6,0,0,1,3.77-5.56h0l19.89-8h0l.1,0h0a5.89,5.89,0,0,1,4.66.09h0l17.89,8h0l.1,0h0A6,6,0,0,1,57,16Z"/></g><g id="Hexagon_Base" data-name="Hexagon Base" class="cls-3"><path class="cls-2" d="M53.43,10.52h0l-.1,0h0l-17.89-8h0a5.89,5.89,0,0,0-4.66-.09h0l-.1,0h0l-19.89,8h0A6,6,0,0,0,7,16V48a6,6,0,0,0,3.77,5.56h0l19.89,8h0l.1,0h0a5.89,5.89,0,0,0,4.66-.09h0l17.89-8h0l.1,0h0A6,6,0,0,0,57,48V16A6,6,0,0,0,53.43,10.52Z"/></g><g id="Icon"><path class="cls-2" d="M33,26H31V42h2Zm-5,0H26V42h2Zm17-6H38V18a2,2,0,0,0-2-2H28a2,2,0,0,0-2,2v2H19a1,1,0,0,0,0,2h2V46a2,2,0,0,0,2,2H41a2,2,0,0,0,2-2V22h2a1,1,0,0,0,0-2ZM28,18h8v2H28ZM41,46H23V22H41ZM38,26H36V42h2Z"/></g></g></svg>